<svg width="49" height="49" viewBox="0 0 49 49" fill="none" xmlns="http://www.w3.org/2000/svg">
<path d="M10.2083 38.7917H22.4583V42.875H14.2917C13.7502 42.875 13.2309 43.0901 12.848 43.473C12.4651 43.8559 12.25 44.3752 12.25 44.9167C12.25 45.4582 12.4651 45.9775 12.848 46.3603C13.2309 46.7432 13.7502 46.9583 14.2917 46.9583H34.7083C35.2498 46.9583 35.7691 46.7432 36.152 46.3603C36.5349 45.9775 36.75 45.4582 36.75 44.9167C36.75 44.3752 36.5349 43.8559 36.152 43.473C35.7691 43.0901 35.2498 42.875 34.7083 42.875H26.5417V38.7917H38.7917C41.1441 38.7887 43.4236 37.9748 45.2459 36.4872C47.0682 34.9996 48.322 32.9292 48.7958 30.625H0.204163C0.678026 32.9292 1.93178 34.9996 3.75411 36.4872C5.57644 37.9748 7.85591 38.7887 10.2083 38.7917Z" fill="#D7C9C9"/>
<path d="M38.7917 2.04166H10.2083C7.50191 2.0449 4.90726 3.12146 2.99353 5.03519C1.0798 6.94892 0.00324188 9.54357 0 12.25L0 26.5417H49V12.25C48.9968 9.54357 47.9202 6.94892 46.0065 5.03519C44.0927 3.12146 41.4981 2.0449 38.7917 2.04166Z" fill="#D7C9C9"/>
</svg>
