<svg width="47" height="49" viewBox="0 0 47 49" fill="none" xmlns="http://www.w3.org/2000/svg">
<g clip-path="url(#clip0_5_12)">
<path d="M39.2783 34.3L39.4741 34.5042C39.9187 34.9716 40.4694 35.3142 41.0751 35.5002C41.6808 35.6862 42.3218 35.7095 42.9384 35.5679C43.5451 35.4351 44.11 35.1455 44.5812 34.7255C45.0524 34.3056 45.4148 33.7689 45.635 33.1648C46.7163 30.205 47.2331 27.0537 47.1567 23.8875C46.9363 17.6686 44.4828 11.763 40.2825 7.34127C36.0823 2.91954 30.4418 0.304425 24.4792 0.0142792C21.3262 -0.100017 18.1835 0.448726 15.2383 1.62779C12.2931 2.80686 9.60585 4.59211 7.33663 6.87711C5.06741 9.16211 3.26273 11.9001 2.03019 14.9278C0.797644 17.9555 0.162472 21.2109 0.162537 24.5C0.169793 30.9955 2.64801 37.2228 7.05354 41.8158C11.4591 46.4088 17.4322 48.9924 23.6625 49C24.3245 49 24.9746 48.9551 25.6209 48.8979C26.1112 48.8548 26.5681 48.6208 26.9005 48.2425C27.2328 47.8642 27.4164 47.3693 27.4147 46.8562L27.352 39.5307C27.3362 38.0831 27.7345 36.6635 28.4962 35.453C29.2578 34.2425 30.3483 33.2962 31.6282 32.7348C32.9082 32.1734 34.3196 32.0225 35.6822 32.3013C37.0448 32.5801 38.2968 33.2759 39.2783 34.3ZM33.5169 16.4354C34.0784 16.2801 34.6715 16.3018 35.2211 16.4979C35.7708 16.6939 36.2523 17.0555 36.6049 17.5369C36.9575 18.0182 37.1652 18.5978 37.2019 19.2022C37.2386 19.8067 37.1025 20.4089 36.8109 20.9327C36.5192 21.4566 36.0852 21.8785 35.5636 22.1452C35.042 22.4118 34.4563 22.5113 33.8805 22.4309C33.3046 22.3505 32.7646 22.094 32.3287 21.6936C31.8927 21.2933 31.5804 20.7672 31.4312 20.1819C31.3322 19.7931 31.3075 19.3878 31.3587 18.9891C31.4099 18.5904 31.536 18.2061 31.7296 17.8582C31.9233 17.5103 32.1808 17.2056 32.4875 16.9615C32.7942 16.7173 33.1439 16.5386 33.5169 16.4354ZM15.4415 34.6062C14.8799 34.7616 14.2869 34.7398 13.7372 34.5438C13.1875 34.3477 12.706 33.9862 12.3534 33.5048C12.0008 33.0234 11.7931 32.4439 11.7564 31.8394C11.7198 31.235 11.8559 30.6327 12.1475 30.1089C12.4391 29.5851 12.8731 29.1632 13.3947 28.8965C13.9163 28.6298 14.5021 28.5304 15.0779 28.6108C15.6537 28.6911 16.1937 28.9477 16.6296 29.348C17.0656 29.7483 17.3779 30.2744 17.5271 30.8598C17.6262 31.2486 17.6508 31.6539 17.5996 32.0526C17.5484 32.4513 17.4224 32.8355 17.2287 33.1834C17.035 33.5313 16.7775 33.8361 16.4708 34.0802C16.1642 34.3243 15.8144 34.5031 15.4415 34.6062ZM15.4415 22.3562C14.8799 22.5116 14.2869 22.4898 13.7372 22.2938C13.1875 22.0977 12.706 21.7362 12.3534 21.2548C12.0008 20.7734 11.7931 20.1939 11.7564 19.5894C11.7198 18.985 11.8559 18.3827 12.1475 17.8589C12.4391 17.3351 12.8731 16.9132 13.3947 16.6465C13.9163 16.3798 14.5021 16.2804 15.0779 16.3608C15.6537 16.4411 16.1937 16.6977 16.6296 17.098C17.0656 17.4983 17.3779 18.0244 17.5271 18.6098C17.6262 18.9986 17.6508 19.4039 17.5996 19.8026C17.5484 20.2013 17.4224 20.5855 17.2287 20.9334C17.035 21.2813 16.7775 21.5861 16.4708 21.8302C16.1642 22.0743 15.8144 22.2531 15.4415 22.3562ZM25.2331 16.2312C24.6716 16.3866 24.0785 16.3648 23.5289 16.1688C22.9792 15.9727 22.4976 15.6112 22.1451 15.1298C21.7925 14.6484 21.5847 14.0689 21.5481 13.4644C21.5114 12.86 21.6475 12.2577 21.9391 11.7339C22.2307 11.2101 22.6648 10.7882 23.1864 10.5215C23.708 10.2548 24.2937 10.1554 24.8695 10.2358C25.4453 10.3161 25.9854 10.5727 26.4213 10.973C26.8573 11.3733 27.1696 11.8994 27.3187 12.4848C27.4178 12.8735 27.4425 13.2789 27.3913 13.6776C27.3401 14.0763 27.214 14.4605 27.0203 14.8084C26.8267 15.1563 26.5692 15.4611 26.2625 15.7052C25.9558 15.9493 25.6061 16.1281 25.2331 16.2312Z" fill="currentColor"/>
</g>
<defs>
<clipPath id="clip0_5_12">
<rect width="47" height="49" fill="white"/>
</clipPath>
</defs>
</svg>
