<svg width="49" height="48" viewBox="0 0 49 48" fill="none" xmlns="http://www.w3.org/2000/svg">
<g clip-path="url(#clip0_5_10)">
<path d="M1.13073 27.1799C0.0209571 25.5805 -0.200883 23.5442 0.539381 21.7514C2.1938 18.4453 4.96527 15.8021 8.38331 14.2706C10.858 13.0651 13.5385 12.3174 16.2902 12.065C15.0912 13.5102 13.8909 15.0522 12.6893 16.6913C10.2437 20.319 8.15027 24.1631 6.43651 28.1733L5.69883 29.7937C3.851 29.6439 2.1716 28.683 1.13073 27.1799ZM3.94115 35.5884C2.17562 37.9764 0.908412 40.6823 0.212268 43.5509C-0.221746 45.4149 0.968897 47.2706 2.87176 47.6958C3.38961 47.8115 3.92737 47.8114 4.44522 47.6954C7.36914 47.0124 10.127 45.7719 12.5615 44.0446C14.9453 41.7106 14.9462 37.9254 12.5635 35.5903C10.1809 33.2552 6.31688 33.2543 3.93311 35.5884H3.94115ZM20.07 41.5205L18.4037 42.2451V42.8303C18.4077 44.2324 18.9809 45.5753 19.9969 46.5628C20.9633 47.4835 22.2579 47.9991 23.6059 48.0001C28.3956 47.9324 32.279 43.6605 34.3172 39.6833C35.5659 37.2218 36.3317 34.5526 36.5749 31.8143C35.0847 33.0086 33.4867 34.203 31.7811 35.3974C28.0792 37.7937 24.1556 39.8438 20.0619 41.5206L20.07 41.5205ZM48.8853 5.89003C48.6151 14.5553 42.2464 23.1488 29.4137 32.1665C25.9215 34.384 22.2374 36.2971 18.4037 37.8836V36.7629C18.3848 32.9228 15.2115 29.8142 11.2913 29.7957H10.1473C11.7706 26.0402 13.7269 22.4313 15.9937 19.0104C25.1767 6.46932 33.9351 0.222659 42.7667 -0.0599976C47.1681 -0.0599976 48.8853 1.69575 48.8853 5.89003ZM36.6927 16.8564C36.6927 14.108 34.4182 11.8798 31.6124 11.8798C28.8065 11.8798 26.5321 14.1079 26.5321 16.8564C26.5321 19.6049 28.8065 21.8331 31.6124 21.8331C34.4182 21.8331 36.6927 19.6049 36.6927 16.8564Z" fill="#D7C9C9"/>
</g>
<defs>
<clipPath id="clip0_5_10">
<rect width="49" height="48" fill="white"/>
</clipPath>
</defs>
</svg>
