<svg width="52" height="52" viewBox="0 0 52 52" fill="none" xmlns="http://www.w3.org/2000/svg">
<path d="M32.5 0H19.5C16.6279 0.00344036 13.8744 1.14591 11.8435 3.17681C9.81258 5.20771 8.6701 7.96121 8.66666 10.8333V34.6667H43.3333V10.8333C43.3299 7.96121 42.1874 5.20771 40.1565 3.17681C38.1256 1.14591 35.3721 0.00344036 32.5 0Z" fill="currentColor"/>
<path d="M8.66666 41.1667C8.6701 44.0388 9.81258 46.7923 11.8435 48.8232C13.8744 50.8541 16.6279 51.9966 19.5 52H32.5C35.3721 51.9966 38.1256 50.8541 40.1565 48.8232C42.1874 46.7923 43.3299 44.0388 43.3333 41.1667V39H8.66666V41.1667ZM26 43.3333C26.4285 43.3333 26.8474 43.4604 27.2037 43.6985C27.56 43.9366 27.8377 44.2749 28.0017 44.6709C28.1657 45.0668 28.2086 45.5024 28.125 45.9227C28.0414 46.343 27.8351 46.7291 27.5321 47.0321C27.229 47.3351 26.843 47.5414 26.4227 47.625C26.0024 47.7086 25.5668 47.6657 25.1709 47.5017C24.7749 47.3377 24.4366 47.06 24.1985 46.7037C23.9604 46.3474 23.8333 45.9285 23.8333 45.5C23.8333 44.9254 24.0616 44.3743 24.4679 43.9679C24.8743 43.5616 25.4254 43.3333 26 43.3333Z" fill="currentColor"/>
</svg>
