<svg width="51" height="51" viewBox="0 0 51 51" fill="none" xmlns="http://www.w3.org/2000/svg">
<path d="M2.81987 26.35L10.3849 31.875L7.51187 40.7724C7.04759 42.1524 7.0417 43.6454 7.49511 45.029C7.94851 46.4125 8.83691 47.6125 10.0279 48.45C11.1984 49.3144 12.617 49.7775 14.0721 49.7702C15.5272 49.763 16.941 49.2857 18.1029 48.4096L25.5 42.9654L32.8993 48.4033C34.0677 49.2627 35.4786 49.7296 36.929 49.7366C38.3795 49.7437 39.7949 49.2906 40.9716 48.4426C42.1484 47.5946 43.0259 46.3952 43.4781 45.017C43.9303 43.6388 43.9338 42.1527 43.4881 40.7724L40.6151 31.875L48.1801 26.35C49.347 25.4969 50.2145 24.2967 50.6586 22.9211C51.1027 21.5455 51.1007 20.0647 50.6529 18.6902C50.2052 17.3158 49.3345 16.118 48.1653 15.2679C46.9961 14.4179 45.5882 13.9591 44.1426 13.957H34.85L32.0301 5.16802C31.5867 3.78456 30.7153 2.57768 29.5417 1.72141C28.368 0.865148 26.9528 0.403748 25.5 0.403748C24.0472 0.403748 22.632 0.865148 21.4583 1.72141C20.2847 2.57768 19.4133 3.78456 18.9699 5.16802L16.15 13.957H6.86587C5.42033 13.9591 4.01241 14.4179 2.84321 15.2679C1.67401 16.118 0.803335 17.3158 0.355556 18.6902C-0.0922227 20.0647 -0.0942046 21.5455 0.349893 22.9211C0.793991 24.2967 1.66145 25.4969 2.82837 26.35H2.81987Z" fill="currentColor"/>
</svg>
